<svg width="541" height="337" viewBox="0 0 541 337" fill="none" xmlns="http://www.w3.org/2000/svg">
<g filter="url(#filter0_d_139_252)">
<path d="M148.095 43.2241C162.37 43.7741 178.358 47.1005 192.13 56.644C227.494 81.1478 222.449 117.759 219.829 127.355C218.508 132.193 213.247 146.344 200.786 156.376C188.151 166.548 168.467 172.201 139.019 160.47C109.763 148.816 99.7344 133.517 98.8607 119.95C98.43 113.261 100.254 107.212 102.813 102.536C105.334 97.9293 108.709 94.4091 111.643 93.0052C114.244 91.7604 117.236 90.9046 120.136 90.1084C123.097 89.2952 125.981 88.5392 128.644 87.4872C131.291 86.4413 133.577 85.1534 135.338 83.3672C136.962 81.719 138.215 79.5707 138.838 76.6006L138.954 75.9963C139.381 73.5446 138.972 69.4468 135.59 65.2224C132.2 60.989 125.704 56.4884 113.725 53.5532L113.726 53.544C110.21 52.6642 109.946 47.45 113.762 46.5806C121.11 44.8961 133.815 42.674 148.095 43.2241Z" fill="white" stroke="black" stroke-width="4"/>
<path d="M91.1507 40.675C94.9667 42.9693 98.4984 46.969 101 51.64C105.96 60.9042 107.338 73.918 97.2059 82.4215C63.4899 110.717 44.1042 158.35 32.8677 186.251L32.8759 186.256L32.2641 187.782C30.7517 191.551 26.8731 193.506 23.677 194.173C22.0385 194.515 20.3531 194.573 18.9392 194.262C17.664 193.981 15.846 193.19 15.4435 191.228L15.4441 191.227C15.2191 190.135 15.1477 188.41 15.1619 186.44C15.1767 184.411 15.2856 181.951 15.4764 179.299C15.8578 174.001 16.5735 167.847 17.559 162.706L17.5595 162.705C21.5561 141.9 29.921 116.377 40.7366 93.5729C51.5165 70.844 64.8855 50.4833 79.043 40.3419C82.8445 37.6163 87.336 38.3815 91.1507 40.675ZM89.5846 47.7755C87.2724 45.8591 85.4156 45.5522 84.2631 46.0235C83.1184 46.492 82.0215 48.0016 81.74 50.9815C81.4681 53.861 82.0452 57.5982 83.6415 61.4491C85.2379 65.2999 87.4759 68.3546 89.7106 70.2068C92.0232 72.1236 93.8797 72.4305 95.0321 71.9588C96.1768 71.4903 97.2733 69.9814 97.5548 67.0017C97.8268 64.1221 97.2488 60.3847 95.6524 56.5336C94.0561 52.683 91.8193 49.6278 89.5846 47.7755Z" fill="white" stroke="black" stroke-width="4"/>
</g>
<g filter="url(#filter1_d_139_252)">
<path d="M226.483 143.054C231.147 142.721 236.24 143.928 238.708 147.817H238.707C239.881 149.664 240.198 151.799 240.117 153.806C240.036 155.817 239.552 157.848 238.971 159.639C238.386 161.44 237.677 163.07 237.102 164.294C236.813 164.907 236.556 165.424 236.364 165.807C236.169 166.197 236.096 166.341 236.081 166.37C235.375 168.248 235.779 169.237 236.303 169.825C236.957 170.56 238.223 171.133 239.899 171.292C241.545 171.448 243.247 171.166 244.472 170.577C245.713 169.98 246.097 169.289 246.115 168.717V168.714C246.142 167.94 245.851 166.873 245.222 165.402C244.562 163.86 243.844 162.53 243.013 160.703C241.569 157.531 239.969 153.243 242.296 149.434C244.455 145.9 248.971 143.814 253.399 143.318C257.872 142.818 262.931 143.861 266.249 147.436V147.437C276.744 158.744 280.837 175.054 276.88 188.665C274.892 195.502 270.867 201.662 264.609 206.101C258.36 210.533 250.006 213.163 239.483 213.167V213.168H239.457V213.167C227.665 213.163 219.01 210.207 212.979 205.31C206.94 200.404 203.739 193.72 202.552 186.662C201.368 179.626 202.171 172.165 204.169 165.518C206.162 158.884 209.393 152.902 213.221 148.875C216.559 145.363 221.72 143.394 226.483 143.054Z" fill="white" stroke="black" stroke-width="4"/>
<path d="M313.217 143.357C320.628 142.364 328.39 143.362 334.364 147.388L334.365 147.389C340.043 151.218 345.095 157.226 346.658 164.008C347.448 167.432 347.343 171.053 345.962 174.623C344.653 178.006 342.24 181.232 338.564 184.166C343.126 186.507 346.8 189.59 349.25 192.942C351.805 196.438 353.142 200.397 352.461 204.131C351.761 207.968 349.022 211.079 344.459 212.938C339.957 214.773 333.59 215.449 325.187 214.575V214.574C323 214.349 321.25 213.638 319.822 212.514C318.423 211.411 317.447 210.001 316.66 208.559C315.892 207.151 315.213 205.527 314.544 204.056C313.851 202.531 313.116 201.036 312.153 199.612L312.123 199.567L312.096 199.521C312.031 199.413 311.924 199.319 311.787 199.258C311.697 199.218 311.62 199.208 311.566 199.205C311.548 199.293 311.532 199.456 311.565 199.725H311.564C311.957 202.495 312.244 204.914 312.123 206.907C311.998 208.968 311.419 210.864 309.825 212.284C308.318 213.627 306.191 214.272 303.628 214.609C301.355 214.908 298.491 214.992 294.946 214.951L293.386 214.927C289.333 214.847 286.407 213.558 284.692 211.033C283.071 208.645 282.848 205.58 283.074 202.657C283.303 199.691 284.037 196.451 284.72 193.468C285.422 190.402 286.062 187.636 286.239 185.347L286.24 185.346C286.518 181.771 286.358 178.592 286.122 175.641C285.89 172.747 285.564 169.899 285.566 167.275C285.569 164.59 285.908 161.948 287.075 159.319C288.244 156.688 290.179 154.211 293.166 151.743L293.667 151.338C298.91 147.188 306.026 144.321 313.217 143.357ZM314.021 169.759C311.285 169.759 309.71 171.545 309.71 173.034C309.71 174.521 311.295 176.31 314.021 176.31C316.758 176.309 318.333 174.523 318.333 173.034C318.333 171.546 316.758 169.759 314.021 169.759Z" fill="white" stroke="black" stroke-width="4"/>
<path d="M356.011 139.631C368.284 131.037 381.554 130.273 391.42 134.102C401.356 137.958 408.203 146.744 405.992 156.904C404.709 162.799 402.079 166.721 398.944 169.366C395.847 171.979 392.381 173.24 389.601 174.032C388.905 174.23 388.243 174.401 387.645 174.554C387.037 174.71 386.512 174.842 386.042 174.973C385.769 175.05 385.534 175.12 385.332 175.188C385.632 175.527 386.094 175.988 386.789 176.595C389.735 179.167 392.363 181.992 394.205 184.884C396.032 187.752 397.21 190.881 396.915 193.981C396.61 197.197 394.762 199.979 391.382 202.123C388.066 204.227 383.206 205.776 376.571 206.698L376.57 206.698C372.435 207.271 369.141 206.224 366.601 204.027C364.148 201.905 362.561 198.851 361.437 195.676C360.307 192.483 359.575 188.956 358.962 185.722C358.335 182.412 357.846 179.494 357.197 177.24L357.197 177.239C356.46 174.681 355.155 171.872 353.716 168.783C352.309 165.76 350.786 162.493 349.792 159.242C348.796 155.986 348.267 152.555 349.003 149.206C349.753 145.792 351.766 142.688 355.427 140.046L356.011 139.631ZM373.975 157.415C374.042 157.605 374.129 157.822 374.237 158.071L374.241 158.065L375.768 161.22C376.093 161.889 376.97 162.124 377.593 161.695C379.135 160.627 380.167 159.61 380.722 158.789C381.13 158.185 381.163 157.88 381.162 157.789C381.085 157.709 380.763 157.441 379.736 157.262C378.505 157.047 376.63 157.041 373.975 157.415Z" fill="white" stroke="black" stroke-width="4"/>
<path d="M414.336 125.063C417.332 123.403 420.802 122.453 424.096 122.148C427.369 121.846 430.639 122.168 433.204 123.22L433.32 123.267L433.428 123.329C435.096 124.27 436.083 125.891 436.692 127.521C437.305 129.166 437.624 131.059 437.805 132.889C437.987 134.732 438.038 136.622 438.072 138.284C438.103 139.781 438.119 141.037 438.187 142.011L438.22 142.41C438.92 149.755 440.196 155.073 441.969 158.388C442.845 160.025 443.781 161.058 444.716 161.645C445.613 162.208 446.628 162.438 447.864 162.269C448.972 162.118 450.147 161.432 451.68 160.263C453.07 159.202 454.851 157.652 456.702 156.567C458.652 155.424 460.978 154.594 463.734 154.986C466.451 155.372 469.273 156.904 472.343 159.819C476.433 163.7 477.927 167.706 477.039 171.65C476.198 175.388 473.322 178.511 470.043 181.028C463.456 186.084 453.836 189.718 449.526 191.492L449.512 191.497L449.498 191.503C444.512 193.47 438.084 195.275 432.815 194.664C430.132 194.352 427.548 193.389 425.682 191.295C423.807 189.19 422.916 186.233 423.034 182.472C423.233 176.159 420.846 170.006 417.598 163.638C414.438 157.441 410.308 150.805 407.715 144.259L407.554 143.84C405.938 139.522 405.988 135.692 407.338 132.456C408.715 129.154 411.34 126.722 414.336 125.063Z" fill="white" stroke="black" stroke-width="4"/>
<path d="M446.423 107.015C449.25 99.9794 454.913 95.2608 460.722 93.7209C466.582 92.1679 472.827 93.8641 475.908 99.9696C477.393 102.911 477.538 105.425 476.456 107.751C475.493 109.824 473.614 111.528 471.914 113.108C468.499 116.281 464.432 120.064 462.803 127.818L462.653 128.581C462.084 131.679 461.425 133.902 460.635 135.399C459.859 136.87 458.664 138.146 456.887 138.165C455.361 138.181 454.17 137.205 453.484 136.558C452.746 135.862 451.987 134.93 451.512 134.395L451.513 134.393C450.291 133.019 447.925 129.078 446.397 124.169C444.923 119.434 444.123 113.46 446.15 107.767L446.136 107.73L446.423 107.015Z" fill="white" stroke="black" stroke-width="4"/>
<path d="M469.139 117.856C476.766 110.398 485.507 110.836 491.347 114.72C494.213 116.627 496.41 119.386 497.366 122.446C498.337 125.552 498.016 128.972 495.8 131.891L495.798 131.892C492.79 135.848 488.001 137.39 483.239 138.876C478.315 140.411 472.969 141.981 467.663 145.64C465.052 147.458 460.953 146.459 460.297 142.912C459.263 137.391 459.356 127.432 469.138 117.856L469.139 117.856Z" fill="white" stroke="black" stroke-width="4"/>
<path d="M469.895 144.999C473.29 141.151 479.255 137.713 486.354 136.548L486.355 136.548C495.795 135.002 505.157 136.379 512.467 140.079C519.781 143.782 525.191 149.913 526.227 157.862L526.228 157.863C527.228 165.572 522.693 174.143 516.967 179.814C514.068 182.686 510.706 184.981 507.312 186.097C504.233 187.11 500.976 187.187 498.114 185.641L498.036 185.67L497.182 185.082C490.597 180.553 488.675 176.415 486.009 172.214C483.517 168.289 480.117 163.806 470.799 157.78L469.878 157.192C467.666 155.795 466.641 153.66 466.832 151.294C467.009 149.091 468.211 146.907 469.895 144.999Z" fill="white" stroke="black" stroke-width="4"/>
<path d="M113.232 87.2892C113.837 87.4534 114.625 87.7745 115.159 88.4576C115.454 88.8349 115.7 89.3657 115.687 90.0058C115.674 90.6461 115.408 91.1671 115.098 91.5316C114.534 92.1928 113.738 92.4695 113.145 92.5944L113.139 92.5956C106.821 93.9071 102.773 98.4259 100.215 103.098C97.6564 107.772 96.7523 112.327 96.6364 113.08C95.8542 118.164 95.7306 127.051 102.006 136.958L102.005 136.958C105.477 142.433 111.176 147.453 117.793 151.675C124.39 155.884 131.778 159.221 138.482 161.38L140.2 161.941C176.157 173.84 203.771 194.014 209.195 230.005C212.82 254.043 201.121 271.538 185.46 282.959C170.362 293.969 151.386 299.511 138.208 300.1L136.951 300.142C119.347 300.508 96.2879 296.445 75.3245 286.463C54.3515 276.477 35.3028 260.478 26.074 236.876L26.0732 236.875C16.3172 211.91 24.8177 191.534 40.0284 179.591C55.0941 167.761 76.842 164.142 93.6985 172.546C108.092 179.722 117.111 188.492 124.058 195.789C127.56 199.468 130.421 202.645 133.226 205.156C136.007 207.646 138.536 209.293 141.245 210.001L141.246 210.002C142.826 210.416 144.742 210.251 146.502 209.555C148.267 208.857 149.668 207.71 150.389 206.396C151.063 205.167 151.236 203.639 150.308 201.774C149.395 199.941 147.372 197.712 143.523 195.313L142.729 194.831C139.167 192.727 134.173 190.672 128.272 188.302C122.428 185.955 115.784 183.332 109.135 180.131C95.8659 173.741 82.255 164.901 74.5254 150.839L74.5252 150.838C72.7521 147.605 71.2981 143.105 70.4364 138.422C69.5741 133.735 69.2726 128.693 69.925 124.362L70.0766 123.405C71.718 113.6 75.7401 106.377 82.7918 98.4348L82.7943 98.4364C83.2238 97.9614 92.4454 88.416 106.885 87.2072C107.932 87.119 109.417 87.0629 110.861 87.0374L110.867 87.0376C111.762 87.0244 112.558 87.1067 113.232 87.2892Z" fill="white" stroke="black" stroke-width="4"/>
</g>
<path d="M148.233 43.491C162.509 44.041 178.496 47.3673 192.269 56.9109C227.632 81.4146 222.588 118.026 219.967 127.622C218.646 132.46 213.385 146.611 200.924 156.643C188.289 166.815 168.606 172.468 139.157 160.737C109.902 149.083 99.873 133.784 98.9994 120.216C98.5687 113.528 100.393 107.479 102.951 102.803C105.472 98.1962 108.848 94.6759 111.782 93.272C114.383 92.0272 117.374 91.1715 120.274 90.3752C123.236 89.5621 126.12 88.806 128.782 87.754C131.429 86.7081 133.716 85.4202 135.476 83.634C137.101 81.9858 138.353 79.8375 138.976 76.8675L139.093 76.2631C139.52 73.8115 139.111 69.7137 135.729 65.4893C132.339 61.2558 125.843 56.7553 113.864 53.8201L113.864 53.8109C110.349 52.931 110.084 47.7169 113.901 46.8475C121.249 45.163 133.953 42.9409 148.233 43.491Z" fill="white" stroke="black" stroke-width="4"/>
<defs>
<filter id="filter0_d_139_252" x="13.1602" y="36.6023" width="222.523" height="165.863" filterUnits="userSpaceOnUse" color-interpolation-filters="sRGB">
<feFlood flood-opacity="0" result="BackgroundImageFix"/>
<feColorMatrix in="SourceAlpha" type="matrix" values="0 0 0 0 0 0 0 0 0 0 0 0 0 0 0 0 0 0 127 0" result="hardAlpha"/>
<feOffset dx="12" dy="6"/>
<feComposite in2="hardAlpha" operator="out"/>
<feColorMatrix type="matrix" values="0 0 0 0 0 0 0 0 0 0 0 0 0 0 0 0 0 0 1 0"/>
<feBlend mode="normal" in2="BackgroundImageFix" result="effect1_dropShadow_139_252"/>
<feBlend mode="normal" in="SourceGraphic" in2="effect1_dropShadow_139_252" result="shape"/>
</filter>
<filter id="filter1_d_139_252" x="19.9084" y="85.0364" width="520.459" height="219.128" filterUnits="userSpaceOnUse" color-interpolation-filters="sRGB">
<feFlood flood-opacity="0" result="BackgroundImageFix"/>
<feColorMatrix in="SourceAlpha" type="matrix" values="0 0 0 0 0 0 0 0 0 0 0 0 0 0 0 0 0 0 127 0" result="hardAlpha"/>
<feOffset dx="12" dy="2"/>
<feComposite in2="hardAlpha" operator="out"/>
<feColorMatrix type="matrix" values="0 0 0 0 0 0 0 0 0 0 0 0 0 0 0 0 0 0 1 0"/>
<feBlend mode="normal" in2="BackgroundImageFix" result="effect1_dropShadow_139_252"/>
<feBlend mode="normal" in="SourceGraphic" in2="effect1_dropShadow_139_252" result="shape"/>
</filter>
</defs>
</svg>
