<?xml version="1.0" encoding="utf-8"?>
<!-- Generator: Adobe Illustrator 16.0.0, SVG Export Plug-In . SVG Version: 6.00 Build 0)  -->
<!DOCTYPE svg PUBLIC "-//W3C//DTD SVG 1.1//EN" "http://www.w3.org/Graphics/SVG/1.1/DTD/svg11.dtd">
<svg version="1.1" id="Layer_1" xmlns="http://www.w3.org/2000/svg" xmlns:xlink="http://www.w3.org/1999/xlink" x="0px" y="0px"
	 width="382px" height="215px" viewBox="0 0 382 215" enable-background="new 0 0 382 215" xml:space="preserve">
<g>
	<defs>
		<rect id="SVGID_1_" x="-90" y="-73.89" width="595.276" height="841.89"/>
	</defs>
	<clipPath id="SVGID_2_">
		<use xlink:href="#SVGID_1_"  overflow="visible"/>
	</clipPath>
	<path clip-path="url(#SVGID_2_)" d="M175.728,104.822c-34.826,0-29.644-34.998-18.826-46.421c4.428-4.676,14.107-5.551,16.963-1.04
		c2.678,4.231-1.875,12.103-2.13,12.784c-2.779,7.411,10.388,7.288,10.553,2.383c0.128-3.788-5.727-9.659-3.116-13.954
		c2.708-4.456,11.602-5.79,15.772-1.28C210.204,73.801,206.688,104.822,175.728,104.822"/>
	<path clip-path="url(#SVGID_2_)" fill="none" stroke="#000000" stroke-width="3" d="M175.728,104.822
		c-34.826,0-29.644-34.998-18.826-46.421c4.428-4.676,14.107-5.551,16.963-1.04c2.678,4.231-1.875,12.103-2.13,12.784
		c-2.779,7.411,10.388,7.288,10.553,2.383c0.128-3.788-5.727-9.659-3.116-13.954c2.708-4.456,11.602-5.79,15.772-1.28
		C210.204,73.801,206.688,104.822,175.728,104.822z"/>
	<path clip-path="url(#SVGID_2_)" d="M246.734,83.826c-2.237-1.59-2.519-4.786-0.719-6.857c7.217-8.305,1.672-18.145-5.671-23.116
		c-8.263-5.592-21.917-3.015-29.447,3.234c-8.51,7.064-3.83,13.192-4.709,24.549c-0.584,7.532-7.14,20.679,3.943,20.898
		c12.936,0.255,13.467-1.307,12.256-9.872c-0.32-2.554,2.318-2.617,3.212-1.128c3.213,4.766,3.183,10.159,8.788,10.745
		C257.102,104.654,257.418,91.42,246.734,83.826 M225.756,76.15c-2.645,0-4.787-1.802-4.787-4.024c0-2.223,2.143-4.024,4.787-4.024
		c2.644,0,4.787,1.801,4.787,4.024C230.543,74.349,228.399,76.15,225.756,76.15"/>
	<path clip-path="url(#SVGID_2_)" fill="none" stroke="#000000" stroke-width="3" d="M246.734,83.826
		c-2.237-1.59-2.519-4.786-0.719-6.857c7.217-8.305,1.672-18.145-5.671-23.116c-8.263-5.592-21.917-3.015-29.447,3.234
		c-8.51,7.064-3.83,13.192-4.709,24.549c-0.584,7.532-7.14,20.679,3.943,20.898c12.936,0.255,13.467-1.307,12.256-9.872
		c-0.32-2.554,2.318-2.617,3.212-1.128c3.213,4.766,3.183,10.159,8.788,10.745C257.102,104.654,257.418,91.42,246.734,83.826z
		 M225.756,76.15c-2.645,0-4.787-1.802-4.787-4.024c0-2.223,2.143-4.024,4.787-4.024c2.644,0,4.787,1.801,4.787,4.024
		C230.543,74.349,228.399,76.15,225.756,76.15z"/>
	<path clip-path="url(#SVGID_2_)" d="M264.754,102.455c-11.029-0.705-7.919-16.054-8.508-23.554
		c-0.681-8.664-7.86-21.407,3.445-26.53c20.321-9.209,38.594,5.64,33.021,18.298c-6.894,15.659-23.456,4.922-17.085,13.313
		C282.606,93.174,284.649,103.727,264.754,102.455 M269.504,70.272c0.374,1.458,1.971,2.249,3.354,1.655
		c5.644-2.422,6.417-6.247-3.018-6.704C267.993,65.134,268.714,67.195,269.504,70.272"/>
	<path clip-path="url(#SVGID_2_)" fill="none" stroke="#000000" stroke-width="3" d="M264.754,102.455
		c-11.029-0.705-7.919-16.054-8.508-23.554c-0.681-8.664-7.86-21.407,3.445-26.53c20.321-9.209,38.594,5.64,33.021,18.298
		c-6.894,15.659-23.456,4.922-17.085,13.313C282.606,93.174,284.649,103.727,264.754,102.455z M269.504,70.272
		c0.374,1.458,1.971,2.249,3.354,1.655c5.644-2.422,6.417-6.247-3.018-6.704C267.993,65.134,268.714,67.195,269.504,70.272z"/>
	<path clip-path="url(#SVGID_2_)" d="M310.839,102.444c-8.025,0.176-18.935-1.668-15.027-11.339
		c3.987-9.874-0.507-21.405-0.758-31.974c-0.319-13.419,15.862-12.018,21.127-7.163c2.462,2.91-1.045,10.232-1.915,13.532
		c-2.895,10.979-2.21,17.513,2.787,18.617c4.915,1.085,11.679-7.033,17.043,3.893C341.053,102.181,318.098,102.174,310.839,102.444"
		/>
	<path clip-path="url(#SVGID_2_)" fill="none" stroke="#000000" stroke-width="3" d="M310.839,102.444
		c-8.025,0.176-18.935-1.668-15.027-11.339c3.987-9.874-0.507-21.405-0.758-31.974c-0.319-13.419,15.862-12.018,21.127-7.163
		c2.462,2.91-1.045,10.232-1.915,13.532c-2.895,10.979-2.21,17.513,2.787,18.617c4.915,1.085,11.679-7.033,17.043,3.893
		C341.053,102.181,318.098,102.174,310.839,102.444z"/>
	<path clip-path="url(#SVGID_2_)" d="M331.994,43.791c-5.826,6.471-4.102,17.232-3.281,19.333c0.952,2.439,1.965,6.657,6.741-1.44
		c7.034-11.923,17.73-7.413,16.749-16.007C351.181,36.741,339.101,35.898,331.994,43.791"/>
	<path clip-path="url(#SVGID_2_)" fill="none" stroke="#000000" stroke-width="3" stroke-miterlimit="10" d="M331.994,43.791
		c-5.826,6.471-4.102,17.232-3.281,19.333c0.952,2.439,1.965,6.657,6.741-1.44c7.034-11.923,17.73-7.413,16.749-16.007
		C351.181,36.741,339.101,35.898,331.994,43.791z"/>
	<path clip-path="url(#SVGID_2_)" d="M332.823,72.333c-0.235,1.398,1.159,2.545,2.649,2.162c9.996-2.566,17.799,1.24,23.208-2.224
		c7.52-4.815-0.423-20.432-13.859-14.388C335.913,61.89,333.471,68.483,332.823,72.333"/>
	<path clip-path="url(#SVGID_2_)" fill="none" stroke="#000000" stroke-width="3" stroke-miterlimit="10" d="M332.823,72.333
		c-0.235,1.398,1.159,2.545,2.649,2.162c9.996-2.566,17.799,1.24,23.208-2.224c7.52-4.815-0.423-20.432-13.859-14.388
		C335.913,61.89,333.471,68.483,332.823,72.333z"/>
	<path clip-path="url(#SVGID_2_)" d="M347.747,111.078c-6.567-9.339-0.93-12.5-12.154-27.188c-3.494-4.572,5.55-9.949,15.66-7.987
		c13.689,2.655,24.023,13.236,21.6,23.919C370.526,110.07,352.866,118.358,347.747,111.078"/>
	<path clip-path="url(#SVGID_2_)" fill="none" stroke="#000000" stroke-width="3" stroke-miterlimit="10" d="M347.747,111.078
		c-6.567-9.339-0.93-12.5-12.154-27.188c-3.494-4.572,5.55-9.949,15.66-7.987c13.689,2.655,24.023,13.236,21.6,23.919
		C370.526,110.07,352.866,118.358,347.747,111.078z"/>
	<path clip-path="url(#SVGID_2_)" d="M47.628,43.107c-1.199,0.42-2.157-1.046-1.276-1.961c7.846-8.136,28.255-26.381,52.902-25.641
		c31.679,0.95,43.241,25.66,45.459,32.629c2.217,6.969,9.662,43.482-36.589,52.745c-46.252,9.264-47.961-22.492-43.717-29.461
		c4.079-6.699,14.889-13.147,10.454-23.601C73.046,43.539,65.726,36.763,47.628,43.107"/>
	<path clip-path="url(#SVGID_2_)" fill="none" stroke="#000000" stroke-width="3" stroke-miterlimit="10" d="M47.628,43.107
		c-1.199,0.42-2.157-1.046-1.276-1.961c7.846-8.136,28.255-26.381,52.902-25.641c31.679,0.95,43.241,25.66,45.459,32.629
		c2.217,6.969,9.662,43.482-36.589,52.745c-46.252,9.264-47.961-22.492-43.717-29.461c4.079-6.699,14.889-13.147,10.454-23.601
		C73.046,43.539,65.726,36.763,47.628,43.107z"/>
	<path clip-path="url(#SVGID_2_)" d="M48.489,86.315c0.039-0.26,1.851-9.766,10.117-16.213c0.59-0.46,1.483-1.093,2.384-1.698
		c1.929-1.298,2.744-0.65,1.829,0.262c-7.835,7.803-2.92,20.378-2.346,21.654c1.715,3.811,5.532,9.873,14.043,13.788
		c9.501,4.37,23.79,3.423,34.335,0.547c28.085-7.659,53.787-6.388,71.841,14.043c23.529,26.628-0.617,61.558-16.703,72.537
		c-21.727,14.83-64.531,27.539-94.978,5.617c-31.915-22.979-11.332-63.326,15.733-66.431c23.745-2.723,36.664,7.263,46.054,4.133
		c6.128-2.043,10.128-13.958-5.872-13.277c-13.102,0.558-40.192,11.483-60.815,0.384c-4.563-2.456-10.638-8.624-13.212-14.298
		C47.771,100.469,47.276,94.358,48.489,86.315"/>
	<path clip-path="url(#SVGID_2_)" fill="none" stroke="#000000" stroke-width="3" stroke-miterlimit="10" d="M48.489,86.315
		c0.039-0.26,1.851-9.766,10.117-16.213c0.59-0.46,1.483-1.093,2.384-1.698c1.929-1.298,2.744-0.65,1.829,0.262
		c-7.835,7.803-2.92,20.378-2.346,21.654c1.715,3.811,5.532,9.873,14.043,13.788c9.501,4.37,23.79,3.423,34.335,0.547
		c28.085-7.659,53.787-6.388,71.841,14.043c23.529,26.628-0.617,61.558-16.703,72.537c-21.727,14.83-64.531,27.539-94.978,5.617
		c-31.915-22.979-11.332-63.326,15.733-66.431c23.745-2.723,36.664,7.263,46.054,4.133c6.128-2.043,10.128-13.958-5.872-13.277
		c-13.102,0.558-40.192,11.483-60.815,0.384c-4.563-2.456-10.638-8.624-13.212-14.298C47.771,100.469,47.276,94.358,48.489,86.315z"
		/>
	<path clip-path="url(#SVGID_2_)" d="M50.267,164.45c-2.19-11.229-5.294-26.922-6.531-43.97c-0.425-5.856-0.63-11.871-0.502-17.92
		c0.153-7.186,0.775-14.42,2.056-21.49c0.715-3.946,1.635-7.84,2.793-11.648c2.891-9.507-4.095-17.176-11.626-20.465
		c-6.161-2.691,2.885,8.492,1.105,13.058c-1.222,3.135-17.705-4.242-18.34-0.35c-0.726,4.449-1.09,9.327-1.142,14.486
		c-0.08,7.914,0.574,16.49,1.781,25.192c0.971,7.006,2.302,14.093,3.898,20.984c2.641,11.406,6.009,22.273,9.677,31.333
		c2.936,7.251,8.239,16.699,10.117,18.613C45.181,173.933,51.172,169.093,50.267,164.45 M31.379,63.344
		c-5.544-3.82,2.989,0.078,5.014-2.861c2.025-2.939-3.224-11.601,2.319-7.781c5.544,3.82,5.409,7.821,3.383,10.76
		C40.07,66.4,36.923,67.164,31.379,63.344"/>
	<path clip-path="url(#SVGID_2_)" fill="none" stroke="#000000" stroke-width="3" stroke-miterlimit="10" d="M50.267,164.45
		c-2.19-11.229-5.294-26.922-6.531-43.97c-0.425-5.856-0.63-11.871-0.502-17.92c0.153-7.186,0.775-14.42,2.056-21.49
		c0.715-3.946,1.635-7.84,2.793-11.648c2.891-9.507-4.095-17.176-11.626-20.465c-6.161-2.691,2.885,8.492,1.105,13.058
		c-1.222,3.135-17.705-4.242-18.34-0.35c-0.726,4.449-1.09,9.327-1.142,14.486c-0.08,7.914,0.574,16.49,1.781,25.192
		c0.971,7.006,2.302,14.093,3.898,20.984c2.641,11.406,6.009,22.273,9.677,31.333c2.936,7.251,8.239,16.699,10.117,18.613
		C45.181,173.933,51.172,169.093,50.267,164.45z M31.379,63.344c-5.544-3.82,2.989,0.078,5.014-2.861
		c2.025-2.939-3.224-11.601,2.319-7.781c5.544,3.82,5.409,7.821,3.383,10.76C40.07,66.4,36.923,67.164,31.379,63.344z"/>
	<path clip-path="url(#SVGID_2_)" d="M158.55,49.314c2.935,0,5.587,0.939,6.867,2.962c2.679,4.231-1.874,12.103-2.13,12.784
		c-1.518,4.049,1.724,5.849,5.004,5.849c2.724,0,5.475-1.241,5.55-3.466c0.127-3.788-5.727-9.659-3.116-13.954
		c1.547-2.546,5.114-4.072,8.665-4.073c2.664,0,5.319,0.86,7.107,2.793c15.261,16.507,11.745,47.528-19.216,47.528
		c-34.826,0-29.644-34.998-18.826-46.421C150.897,50.736,154.938,49.314,158.55,49.314 M158.55,46.314
		c-4.685,0-9.388,1.892-12.274,4.939c-7.403,7.818-11.846,24.287-6.659,36.344c2.972,6.907,10.183,15.14,27.664,15.14
		c18.663,0,25.925-10.233,28.593-16.333c4.977-11.38,2.027-26.279-7.174-36.231c-2.239-2.423-5.545-3.757-9.309-3.757
		c-4.591,0.001-8.834,1.993-10.969,5.111c-0.137-0.291-0.293-0.577-0.47-0.856C166.199,47.902,162.772,46.314,158.55,46.314
		 M166.072,66.18c0.035-0.074,0.086-0.174,0.148-0.299c0.485-0.974,1.358-2.727,2.044-4.811c0.364,0.878,0.765,1.71,1.134,2.475
		c0.622,1.291,1.389,2.882,1.442,3.678c-0.265,0.243-1.195,0.686-2.549,0.686c-1.282,0-2.138-0.403-2.336-0.69
		C165.87,67.097,165.876,66.73,166.072,66.18"/>
	<path clip-path="url(#SVGID_2_)" d="M220.692,45.685c4.095,0,8.045,0.944,11.205,3.083c8.188,5.542,14.139,17.135,2.663,25.907
		c-0.691,0.529-0.592,1.588,0.19,1.971c13.028,6.375,15.811,20.829-3.754,20.829c-1.544,0-3.229-0.09-5.057-0.281
		c-5.604-0.586-5.575-5.979-8.788-10.745c-0.38-0.633-1.073-0.985-1.724-0.985c-0.878,0-1.672,0.645-1.488,2.113
		c1.133,8.014,0.741,9.897-9.91,9.897c-0.733,0-1.514-0.009-2.346-0.025c-11.083-0.219-4.527-13.366-3.943-20.898
		c0.879-11.357-3.801-17.485,4.709-24.549C207.1,48.143,214.084,45.685,220.692,45.685 M217.309,71.065
		c2.645,0,4.787-1.802,4.787-4.024s-2.143-4.024-4.787-4.024c-2.644,0-4.787,1.802-4.787,4.024S214.665,71.065,217.309,71.065
		 M220.692,42.685h-0.002c-7.224,0-14.947,2.686-20.156,7.009c-7.065,5.864-6.554,11.676-6.013,17.828
		c0.238,2.705,0.484,5.501,0.228,8.797c-0.124,1.603-0.584,3.622-1.072,5.758c-1.208,5.294-2.578,11.295,0.453,15.173
		c1.607,2.056,4.128,3.132,7.495,3.198c0.853,0.017,1.654,0.026,2.405,0.026c5.734,0,9.479-0.488,11.646-2.984
		c1.006-1.158,1.479-2.511,1.634-4.082c1.415,3.025,3.427,6.258,8.317,6.769c1.889,0.198,3.694,0.298,5.369,0.298
		c13.327,0,16.227-6.304,16.854-9.014c1.294-5.59-2.499-11.98-9.374-16.189c4.614-4.414,5.55-9.035,5.455-12.304
		c-0.209-7.277-5.485-13.39-10.352-16.684C230.102,43.93,225.646,42.685,220.692,42.685 M217.309,68.065
		c-1.074,0-1.787-0.616-1.787-1.024c0-0.408,0.713-1.024,1.787-1.024s1.787,0.616,1.787,1.024
		C219.096,67.449,218.383,68.065,217.309,68.065"/>
	<path clip-path="url(#SVGID_2_)" d="M263.967,44.42c14.41-0.002,24.661,11.252,20.3,21.163
		c-6.895,15.659-23.456,4.922-17.085,13.313c6.591,8.681,8.776,18.578-7.762,18.578c-0.972,0-2.007-0.034-3.111-0.105
		c-11.031-0.705-7.92-16.054-8.51-23.554c-0.681-8.664-7.86-21.406,3.446-26.53C255.655,45.287,259.973,44.42,263.967,44.42
		 M263.448,67.042c0.321,0,0.646-0.064,0.963-0.199c5.643-2.423,6.416-6.247-3.018-6.704c-0.039-0.002-0.076-0.003-0.113-0.003
		c-1.704,0-0.996,2.039-0.223,5.052C261.346,66.313,262.363,67.042,263.448,67.042 M263.97,41.42v3V41.42h-0.003
		c-4.679,0.001-9.376,1.054-13.961,3.132c-10.742,4.868-8.266,15.293-6.458,22.905c0.57,2.4,1.109,4.667,1.261,6.593
		c0.108,1.386,0.075,3.186,0.042,5.091c-0.075,4.102-0.16,8.752,1.006,12.696c1.96,6.63,6.661,8.296,10.26,8.526
		c1.151,0.074,2.262,0.111,3.304,0.111c7.738,0,12.695-2.084,14.736-6.195c2.091-4.214,0.74-9.825-3.903-16.274
		c4.524-0.274,12.429-1.376,16.759-11.214c2.092-4.751,1.555-10.139-1.475-14.783C281.276,45.478,273.012,41.42,263.97,41.42
		 M263.802,63.823l-0.052-0.202c-0.021-0.082-0.044-0.167-0.066-0.254c0.272,0.043,0.515,0.089,0.73,0.135
		C264.232,63.605,264.029,63.713,263.802,63.823"/>
	<path clip-path="url(#SVGID_2_)" d="M297.445,43.435c4.003,0,8.094,1.423,10.289,3.447c2.461,2.911-1.045,10.233-1.915,13.532
		c-2.896,10.98-2.21,17.514,2.787,18.617c0.322,0.071,0.653,0.103,0.99,0.103c2.677,0,5.797-1.991,8.901-1.992
		c2.471,0,4.931,1.259,7.151,5.783c6.957,14.17-15.998,14.164-23.257,14.434c-0.33,0.007-0.666,0.011-1.004,0.011
		c-7.896,0-17.771-2.077-14.024-11.35c3.988-9.874-0.506-21.406-0.757-31.974C286.42,46.221,291.847,43.435,297.445,43.435
		 M297.445,40.435c-4.26,0-7.955,1.382-10.405,3.891c-2.341,2.396-3.527,5.783-3.433,9.792c0.089,3.703,0.665,7.483,1.223,11.139
		c1.084,7.101,2.107,13.809-0.248,19.639c-1.901,4.71-0.818,7.897,0.425,9.741c3.196,4.738,10.673,5.733,16.382,5.733
		c0.36,0,0.718-0.004,1.069-0.012c0.396-0.014,0.783-0.027,1.202-0.04c7.229-0.231,20.684-0.661,24.987-7.82
		c1.842-3.065,1.739-6.731-0.306-10.895c-2.465-5.02-5.684-7.46-9.843-7.461c-2.095,0.001-4.022,0.64-5.724,1.204
		c-1.221,0.405-2.375,0.788-3.179,0.788c-0.132,0-0.246-0.011-0.344-0.032c-0.64-0.141-1.05-0.426-1.37-0.951
		c-0.741-1.216-1.62-4.649,0.838-13.972c0.16-0.612,0.469-1.5,0.794-2.439c1.491-4.312,3.536-10.217,0.511-13.795l-0.12-0.142
		l-0.137-0.126C306.974,42.1,302.137,40.435,297.445,40.435"/>
	<path clip-path="url(#SVGID_2_)" d="M334.939,33.296c4.482,0,8.264,2.466,8.816,7.295c0.981,8.594-9.715,4.084-16.748,16.008
		c-2.098,3.555-3.47,4.736-4.429,4.736c-1.226,0-1.778-1.928-2.313-3.297c-0.82-2.101-2.546-12.862,3.28-19.332
		C326.813,35.079,331.128,33.296,334.939,33.296 M334.939,30.296c-4.92,0-10.012,2.393-13.622,6.402
		c-6.626,7.359-5.113,19.184-3.846,22.431c0.059,0.151,0.118,0.309,0.179,0.471c0.618,1.655,1.768,4.735,4.929,4.735
		c2.942,0,5.108-2.986,7.013-6.212c3.008-5.099,6.694-6.643,9.946-8.006c3.54-1.483,7.945-3.328,7.198-9.866
		C346.056,34.296,341.314,30.296,334.939,30.296"/>
	<path clip-path="url(#SVGID_2_)" d="M342.303,51.428c9.635,0,14.26,11.706,7.932,15.759c-1.945,1.245-4.199,1.551-6.753,1.551
		c-2.463,0-5.206-0.285-8.22-0.285c-2.553,0-5.3,0.204-8.235,0.958c-0.197,0.051-0.394,0.075-0.583,0.075
		c-1.249,0-2.271-1.025-2.067-2.237c0.648-3.851,3.09-10.444,11.998-14.451C338.501,51.842,340.49,51.428,342.303,51.428
		 M342.303,48.428c-2.34,0-4.747,0.55-7.159,1.634c-10.277,4.623-13.012,12.44-13.727,16.689c-0.234,1.402,0.159,2.833,1.083,3.925
		c0.973,1.15,2.409,1.81,3.943,1.81c0.446,0,0.893-0.057,1.329-0.169c2.295-0.589,4.675-0.864,7.489-0.864
		c1.505,0,2.96,0.076,4.366,0.149c1.341,0.07,2.606,0.136,3.854,0.136c2.425,0,5.567-0.23,8.371-2.025
		c3.647-2.336,5.138-6.808,3.795-11.393C354.253,53.556,349.481,48.428,342.303,48.428"/>
	<path clip-path="url(#SVGID_2_)" d="M338.5,70.402c1.389,0,2.836,0.13,4.306,0.415c13.69,2.655,24.023,13.237,21.6,23.919
		c-1.71,7.539-11.721,14.017-18.932,14.017c-2.591,0-4.819-0.836-6.174-2.76c-6.565-9.34-0.93-12.501-12.154-27.189
		C324.16,74.897,330.331,70.402,338.5,70.402 M338.5,67.402L338.5,67.402c-6.712,0-12.518,2.621-14.445,6.523
		c-1.102,2.228-0.844,4.671,0.708,6.701c5.979,7.824,6.794,11.944,7.584,15.93c0.646,3.259,1.313,6.63,4.499,11.162
		c1.83,2.602,4.895,4.036,8.628,4.036c8.393,0,19.768-7.144,21.857-16.354c1.094-4.823,0.1-9.784-2.877-14.347
		c-4.252-6.518-12.131-11.446-21.077-13.181C341.769,67.561,340.128,67.402,338.5,67.402"/>
	<path clip-path="url(#SVGID_2_)" d="M89.35,10.398c0.484,0,0.97,0.007,1.457,0.022c31.679,0.95,43.242,25.66,45.459,32.629
		c2.218,6.969,9.662,43.482-36.589,52.746c-5.807,1.163-10.913,1.679-15.392,1.679c-31.196,0-32.036-25.046-28.325-31.141
		c4.079-6.699,14.889-13.147,10.454-23.601c-1.283-3.026-5.321-7.3-13.975-7.3c-3.584,0-7.958,0.732-13.258,2.59
		c-0.144,0.051-0.286,0.074-0.421,0.074c-0.982,0-1.63-1.231-0.854-2.034C45.596,28.086,65.358,10.398,89.35,10.398 M89.35,7.398
		c-25.246,0-45.897,18.589-53.604,26.581c-1.171,1.215-1.504,2.997-0.848,4.541c0.665,1.565,2.181,2.576,3.862,2.576
		c0.479,0,0.954-0.082,1.414-0.243c4.583-1.607,8.71-2.421,12.265-2.421c8.463,0,10.826,4.558,11.214,5.472
		c2.328,5.489-0.559,9.322-5.592,14.982c-1.682,1.891-3.421,3.847-4.663,5.887c-2.743,4.505-2.981,13.791,1.368,21.532
		c3.632,6.464,11.702,14.169,29.519,14.169c4.846,0,10.223-0.585,15.981-1.738c16.96-3.397,28.857-10.715,35.361-21.751
		c9.206-15.621,4.11-32.924,3.498-34.845c-0.57-1.792-3.847-11.165-12.413-19.778c-9.432-9.484-21.481-14.511-35.815-14.941
		C90.38,7.406,89.864,7.398,89.35,7.398"/>
	<path clip-path="url(#SVGID_2_)" d="M54.295,62.588c0.554,0,0.623,0.449,0.077,0.993c-7.835,7.803-2.92,20.378-2.346,21.654
		c1.715,3.81,5.532,9.873,14.043,13.787c4.62,2.126,10.374,2.994,16.278,2.994c6.236,0,12.64-0.968,18.057-2.446
		c10.002-2.728,19.705-4.323,28.865-4.323c16.56,0,31.352,5.211,42.976,18.366c23.529,26.628-0.617,61.558-16.702,72.537
		c-13.325,9.094-34.58,17.392-56.048,17.392c-13.537,0-27.157-3.298-38.931-11.775c-31.915-22.979-11.332-63.327,15.734-66.431
		c2.904-0.333,5.649-0.476,8.242-0.476c15.683,0,25.932,5.223,33.7,5.223c1.451,0,2.814-0.182,4.111-0.614
		c5.958-1.986,9.901-13.304-4.588-13.305c-0.414,0-0.84,0.009-1.284,0.028c-8.725,0.371-23.656,5.341-38.747,5.341
		c-7.57,0-15.179-1.25-22.067-4.957c-4.564-2.456-10.639-8.624-13.213-14.298c-3.128-6.894-3.623-13.006-2.41-21.048
		c0.039-0.26,1.851-9.766,10.117-16.213c0.59-0.46,1.483-1.093,2.384-1.698C53.322,62.794,53.92,62.588,54.295,62.588
		 M54.295,59.588L54.295,59.588c-1.049,0-2.202,0.418-3.426,1.241c-1.007,0.677-1.938,1.341-2.555,1.823
		c-9.376,7.313-11.222,18.025-11.238,18.131c-1.359,9.013-0.593,15.599,2.644,22.734c2.962,6.53,9.71,13.11,14.523,15.7
		c4.413,2.375,9.282,3.94,14.739,4.723c-5.073,1.728-9.926,4.659-14.109,8.578c-5.906,5.533-10.258,12.8-12.254,20.462
		c-4.123,15.819,1.779,30.844,16.192,41.221c11.373,8.189,25.062,12.341,40.684,12.341c23.219,0,45.05-9.254,57.739-17.915
		c11.926-8.139,25.191-25.937,27.469-44.204c1.541-12.352-1.894-23.386-10.21-32.797c-11.363-12.859-26.578-19.379-45.224-19.379
		c-8.901,0-18.878,1.49-29.654,4.429c-5.533,1.509-11.665,2.34-17.268,2.34c-5.963,0-11.158-0.94-15.024-2.719
		c-7.326-3.37-10.874-8.545-12.561-12.293c-0.052-0.114-4.964-11.633,1.727-18.297c1.191-1.187,1.568-2.703,1.008-4.057
		C56.973,60.378,55.746,59.588,54.295,59.588 M95.85,122.721c2.842-0.495,5.551-1.031,8.054-1.527c5.055-1,9.421-1.865,12.703-2.005
		c0.399-0.017,0.782-0.025,1.154-0.025c4.073,0,6.665,1.001,6.937,2.676c0.281,1.731-1.382,4.145-3.295,4.783
		c-0.929,0.309-1.963,0.46-3.162,0.46c-2.846,0-6.342-0.858-10.39-1.851C104.363,124.377,100.391,123.402,95.85,122.721"/>
	<path clip-path="url(#SVGID_2_)" d="M20.476,42.136c9.142,0,23.04,9.447,19.161,22.201c-1.158,3.807-2.078,7.702-2.793,11.647
		c-1.281,7.071-1.903,14.305-2.056,21.491c-0.128,6.049,0.077,12.064,0.502,17.919c1.237,17.049,4.341,32.741,6.531,43.97
		c0.781,4.006-3.57,8.157-5.825,8.157c-0.359,0-0.665-0.105-0.889-0.333c-1.878-1.915-7.181-11.362-10.117-18.613
		c-3.668-9.061-7.036-19.927-9.677-31.333c-1.596-6.891-2.927-13.979-3.898-20.984c-1.207-8.703-1.861-17.278-1.781-25.192
		c0.098-9.674,1.292-18.359,3.91-25.078C14.581,43.328,17.228,42.136,20.476,42.136 M32.327,61.665c1.921,0,3.47-0.591,4.311-1.81
		c2.025-2.939-0.828-8.418-6.372-12.239c-3.242-2.234-6.687-3.406-9.394-3.406c-1.92,0-3.47,0.59-4.31,1.81
		c-2.025,2.939,0.827,8.418,6.371,12.239C26.175,60.493,29.62,61.665,32.327,61.665 M20.476,39.136c-4.754,0-8.3,2.1-9.727,5.763
		c-2.623,6.73-4.007,15.524-4.115,26.136c-0.078,7.79,0.53,16.414,1.809,25.635c0.965,6.957,2.293,14.106,3.947,21.248
		c2.665,11.509,6.061,22.499,9.82,31.783c2.889,7.135,8.417,17.204,10.755,19.587c0.78,0.795,1.856,1.233,3.031,1.233
		c2.465,0,4.911-1.902,6.377-3.682c2.036-2.471,2.908-5.405,2.393-8.049l-0.135-0.689c-2.173-11.142-5.15-26.401-6.349-42.924
		c-0.446-6.143-0.612-12.077-0.494-17.639c0.158-7.466,0.834-14.537,2.008-21.019c0.712-3.932,1.624-7.737,2.711-11.309
		c1.704-5.601,0.695-11.138-2.916-16.011C35.2,43.273,27.339,39.136,20.476,39.136 M32.327,58.665c-2.202,0-5.078-1.075-7.692-2.877
		c-4.916-3.387-6.173-7.238-5.603-8.065c0.163-0.237,0.743-0.513,1.841-0.513c2.202,0,5.077,1.075,7.691,2.877
		c2.252,1.552,4.098,3.507,5.065,5.364c0.71,1.363,0.777,2.356,0.538,2.701C34.004,58.389,33.424,58.665,32.327,58.665"/>
	<path clip-path="url(#SVGID_2_)" fill="#FFFFFF" d="M167.217,99.886c-34.826,0-29.644-34.998-18.826-46.421
		c4.428-4.676,14.107-5.551,16.963-1.04c2.678,4.231-1.875,12.103-2.13,12.784c-2.779,7.411,10.388,7.288,10.553,2.383
		c0.128-3.788-5.726-9.659-3.116-13.954c2.708-4.456,11.602-5.79,15.772-1.28C201.694,68.865,198.178,99.886,167.217,99.886"/>
	<path clip-path="url(#SVGID_2_)" fill="#FFFFFF" d="M234.687,76.794c-0.782-0.383-0.882-1.442-0.189-1.971
		c11.475-8.772,5.523-20.365-2.663-25.907c-8.262-5.592-21.917-3.015-29.447,3.234c-8.511,7.064-3.83,13.192-4.71,24.549
		c-0.583,7.532-7.139,20.679,3.944,20.898c12.936,0.255,13.467-1.307,12.255-9.872c-0.319-2.554,2.32-2.617,3.213-1.128
		c3.213,4.766,3.183,10.159,8.787,10.745C250.87,99.956,248.744,83.672,234.687,76.794 M217.245,71.214
		c-2.645,0-4.787-1.802-4.787-4.024c0-2.223,2.143-4.024,4.787-4.024c2.644,0,4.787,1.801,4.787,4.024
		C222.032,69.413,219.889,71.214,217.245,71.214"/>
	<path clip-path="url(#SVGID_2_)" fill="#FFFFFF" d="M256.244,97.519c-11.03-0.705-7.92-16.054-8.509-23.554
		c-0.681-8.664-7.86-21.406,3.445-26.53c20.321-9.209,38.594,5.64,33.022,18.298c-6.895,15.659-23.456,4.922-17.085,13.313
		C274.096,88.237,276.139,98.791,256.244,97.519 M260.994,65.336c0.374,1.458,1.97,2.249,3.353,1.655
		c5.644-2.422,6.417-6.247-3.018-6.704C259.482,60.197,260.204,62.259,260.994,65.336"/>
	<path clip-path="url(#SVGID_2_)" fill="#FFFFFF" d="M302.328,97.507c-8.025,0.176-18.935-1.668-15.027-11.339
		c3.987-9.874-0.507-21.405-0.758-31.974c-0.319-13.419,15.862-12.018,21.127-7.163c2.462,2.91-1.045,10.232-1.914,13.532
		c-2.896,10.979-2.211,17.513,2.786,18.617c4.915,1.085,11.679-7.033,17.043,3.893C332.542,97.245,309.587,97.237,302.328,97.507"/>
	<path clip-path="url(#SVGID_2_)" fill="#FFFFFF" d="M323.483,38.855c-5.826,6.471-4.102,17.232-3.281,19.333
		c0.952,2.439,1.965,6.657,6.741-1.44c7.034-11.923,17.73-7.413,16.749-16.007C342.67,31.805,330.59,30.962,323.483,38.855"/>
	<path clip-path="url(#SVGID_2_)" fill="#FFFFFF" d="M324.313,67.397c-0.235,1.398,1.159,2.545,2.65,2.162
		c9.995-2.566,17.799,1.24,23.207-2.224c7.52-4.815-0.423-20.432-13.859-14.388C327.402,56.954,324.96,63.547,324.313,67.397"/>
	<path clip-path="url(#SVGID_2_)" fill="#FFFFFF" d="M339.236,106.142c-6.566-9.339-0.93-12.5-12.154-27.188
		c-3.493-4.572,5.55-9.949,15.66-7.987c13.689,2.655,24.023,13.236,21.6,23.919C362.016,105.134,344.355,113.422,339.236,106.142"/>
	<path clip-path="url(#SVGID_2_)" fill="#FFFFFF" d="M39.118,38.171c-1.199,0.42-2.157-1.046-1.276-1.961
		c7.846-8.136,28.255-26.381,52.902-25.641c31.679,0.95,43.241,25.66,45.459,32.629c2.217,6.969,9.662,43.482-36.589,52.745
		c-46.252,9.264-47.961-22.492-43.717-29.461c4.079-6.699,14.889-13.147,10.454-23.601C64.536,38.603,57.215,31.826,39.118,38.171"
		/>
	<path clip-path="url(#SVGID_2_)" fill="#FFFFFF" d="M39.979,81.379c0.039-0.26,1.851-9.766,10.117-16.213
		c0.59-0.46,1.483-1.093,2.384-1.698c1.929-1.298,2.744-0.65,1.829,0.262c-7.835,7.803-2.92,20.378-2.346,21.654
		c1.715,3.812,5.532,9.873,14.043,13.788c9.501,4.37,23.79,3.423,34.335,0.547c28.085-7.659,53.787-6.388,71.841,14.043
		c23.529,26.628-0.617,61.558-16.703,72.537c-21.727,14.83-64.531,27.539-94.978,5.617c-31.915-22.979-11.332-63.326,15.733-66.431
		c23.745-2.723,36.664,7.263,46.054,4.133c6.128-2.043,10.128-13.958-5.872-13.277c-13.101,0.558-40.192,11.483-60.815,0.384
		c-4.563-2.456-10.638-8.624-13.212-14.298C39.261,95.533,38.766,89.422,39.979,81.379"/>
	<path clip-path="url(#SVGID_2_)" fill="#FFFFFF" d="M41.757,159.513c-2.19-11.229-5.294-26.922-6.531-43.97
		c-0.425-5.856-0.63-11.871-0.502-17.92c0.153-7.186,0.775-14.42,2.056-21.49c0.715-3.946,1.635-7.84,2.793-11.648
		C44.83,47.2,17.435,35.99,13.479,46.136c-2.618,6.719-3.812,15.404-3.91,25.078c-0.08,7.914,0.574,16.49,1.781,25.192
		c0.971,7.006,2.302,14.093,3.898,20.984c2.641,11.406,6.009,22.273,9.677,31.333c2.936,7.251,8.239,16.699,10.117,18.613
		C36.671,168.996,42.662,164.156,41.757,159.513 M22.869,58.407c-5.544-3.82-8.396-9.299-6.371-12.238s8.161-2.224,13.704,1.596
		c5.544,3.82,8.397,9.299,6.372,12.238S28.413,62.228,22.869,58.407"/>
</g>
<g>
	<defs>
		<rect id="SVGID_3_" x="-90" y="-73.89" width="595.276" height="841.89"/>
	</defs>
	<clipPath id="SVGID_4_">
		<use xlink:href="#SVGID_3_"  overflow="visible"/>
	</clipPath>
</g>
</svg>
