<?xml version="1.0" encoding="UTF-8"?>
<svg xmlns="http://www.w3.org/2000/svg" viewBox="0 0 397.66 215.66">
  <g id="Layer_2" data-name="Layer 2">
    <g>
      <path d="M166.67,98.74c-34.83,0-29.64-35-18.83-46.42,4.43-4.68,14.11-5.55,16.96-1.04,2.68,4.23-1.87,12.1-2.13,12.78-2.78,7.41,10.39,7.29,10.55,2.38.13-3.79-5.73-9.66-3.12-13.95s11.6-5.79,15.77-1.28c15.26,16.51,11.74,47.53-19.22,47.53Z" style="fill: #231f20;"/>
      <path d="M234.14,75.65c-.78-.38-.88-1.44-.19-1.97,11.47-8.77,5.52-20.37-2.66-25.91-8.26-5.59-21.92-3.02-29.45,3.23-8.51,7.06-3.83,13.19-4.71,24.55-.58,7.53-7.14,20.68,3.94,20.9,12.94.26,13.47-1.31,12.26-9.87-.32-2.55,2.32-2.62,3.21-1.13,3.21,4.77,3.18,10.16,8.79,10.74,24.99,2.61,22.87-13.67,8.81-20.55ZM216.7,70.07c-2.64,0-4.79-1.8-4.79-4.02s2.14-4.02,4.79-4.02,4.79,1.8,4.79,4.02-2.14,4.02-4.79,4.02Z" style="fill: #231f20;"/>
      <path d="M255.7,96.38c-11.03-.71-7.92-16.05-8.51-23.55-.68-8.66-7.86-21.41,3.45-26.53,20.32-9.21,38.59,5.64,33.02,18.3-6.89,15.66-23.46,4.92-17.09,13.31,6.98,9.19,9.02,19.74-10.87,18.47ZM260.45,64.2c.37,1.46,1.97,2.25,3.35,1.66,5.64-2.42,6.42-6.25-3.02-6.7-1.85-.09-1.13,1.97-.34,5.05Z" style="fill: #231f20;"/>
      <path d="M301.78,96.37c-8.03.18-18.93-1.67-15.03-11.34s-.51-21.41-.76-31.97c-.32-13.42,15.86-12.02,21.13-7.16,2.46,2.91-1.04,10.23-1.91,13.53-2.89,10.98-2.21,17.51,2.79,18.62s11.68-7.03,17.04,3.89c6.96,14.17-16,14.16-23.26,14.43Z" style="fill: #231f20;"/>
    </g>
    <path d="M322.94,37.71c-5.83,6.47-4.1,17.23-3.28,19.33.95,2.44,1.96,6.66,6.74-1.44,7.03-11.92,17.73-7.41,16.75-16.01s-13.1-9.78-20.21-1.89Z" style="fill: #231f20;"/>
    <path d="M323.76,66.26c-.24,1.4,1.16,2.55,2.65,2.16,10-2.57,17.8,1.24,23.21-2.22,7.52-4.82-.42-20.43-13.86-14.39-8.91,4.01-11.35,10.6-12,14.45Z" style="fill: #231f20;"/>
    <path d="M338.69,105c-6.57-9.34-.93-12.5-12.15-27.19-3.49-4.57,5.55-9.95,15.66-7.99,13.69,2.66,24.02,13.24,21.6,23.92-2.33,10.25-19.99,18.54-25.1,11.26Z" style="fill: #231f20;"/>
  </g>
  <g id="Layer_3" data-name="Layer 3">
    <path d="M38.57,37.03c-1.2.42-2.16-1.05-1.28-1.96,7.85-8.14,28.25-26.38,52.9-25.64,31.68.95,43.24,25.66,45.46,32.63s9.66,43.48-36.59,52.75-47.96-22.49-43.72-29.46,14.89-13.15,10.45-23.6c-1.82-4.28-9.14-11.05-27.23-4.71Z" style="fill: #231f20;"/>
    <path d="M39.43,80.24c.04-.26,1.85-9.77,10.12-16.21.59-.46,1.48-1.09,2.38-1.7,1.93-1.3,2.74-.65,1.83.26-7.84,7.8-2.92,20.38-2.35,21.65,1.71,3.81,5.53,9.87,14.04,13.79,9.5,4.37,23.79,3.42,34.34.55,28.09-7.66,53.79-6.39,71.84,14.04,23.53,26.63-.62,61.56-16.7,72.54-21.73,14.83-64.53,27.54-94.98,5.62-31.91-22.98-11.33-63.33,15.73-66.43,23.74-2.72,36.66,7.26,46.05,4.13,6.13-2.04,10.13-13.96-5.87-13.28-13.1.56-40.19,11.48-60.81.38-4.56-2.46-10.64-8.62-13.21-14.3-3.13-6.89-3.62-13.01-2.41-21.05Z" style="fill: #231f20;"/>
    <path d="M41.21,158.37c-4.33-22.22-12.25-61.93-2.18-95.03,5.26-17.29-22.14-28.5-26.09-18.35-9.34,23.96-.56,72.94,11.45,102.59,2.94,7.25,8.24,16.7,10.12,18.61,1.63,1.66,7.62-3.18,6.71-7.82ZM22.32,57.27c-5.54-3.82-8.4-9.3-6.37-12.24s8.16-2.22,13.7,1.6c5.54,3.82,8.4,9.3,6.37,12.24-2.03,2.94-8.16,2.22-13.7-1.6Z" style="fill: #231f20;"/>
  </g>
</svg>