<svg width="40" height="41" viewBox="0 0 40 41" fill="none" xmlns="http://www.w3.org/2000/svg">
<path d="M26.6506 20.4227L38.6415 8.13074C39.42 7.22462 39.8323 6.04892 39.7947 4.84262C39.7571 3.63632 39.2724 2.48996 38.439 1.63654C37.6056 0.783124 36.4862 0.286707 35.3082 0.248193C34.1302 0.209679 32.9822 0.631959 32.0973 1.4292L20.094 13.7085L8.06912 1.39121C7.63841 0.950143 7.12709 0.600269 6.56434 0.361564C6.00159 0.12286 5.39843 4.64742e-09 4.78932 0C4.1802 -4.64741e-09 3.57705 0.12286 3.0143 0.361564C2.45155 0.600269 1.94023 0.950143 1.50952 1.39121C1.07881 1.83228 0.737149 2.3559 0.504051 2.93219C0.270952 3.50847 0.150978 4.12613 0.150978 4.74989C0.150978 5.37366 0.270952 5.99132 0.504051 6.5676C0.737149 7.14388 1.07881 7.66751 1.50952 8.10858L13.5375 20.4227L1.54661 32.7115C1.07635 33.142 0.696799 33.6662 0.43118 34.252C0.165561 34.8379 0.0194606 35.4731 0.00181492 36.1188C-0.0158307 36.7645 0.0953499 37.407 0.328556 38.0072C0.561762 38.6074 0.912089 39.1525 1.3581 39.6092C1.80412 40.066 2.33644 40.4247 2.92251 40.6635C3.50857 40.9024 4.13606 41.0162 4.76657 40.9981C5.39709 40.9801 6.01737 40.8305 6.58948 40.5584C7.16158 40.2864 7.67348 39.8978 8.09385 39.4162L20.094 27.1369L32.0819 39.4162C32.9517 40.307 34.1315 40.8074 35.3617 40.8074C36.5918 40.8074 37.7716 40.307 38.6415 39.4162C39.5113 38.5254 40 37.3173 40 36.0575C40 34.7978 39.5113 33.5896 38.6415 32.6988L26.6506 20.4227Z" fill="#30008F"/>
</svg>
