<svg width="21" height="19" viewBox="0 0 21 19" fill="none" xmlns="http://www.w3.org/2000/svg">
<path d="M15.0865 0C14.1896 0.00888121 13.3073 0.232656 12.5102 0.653396C11.713 1.07414 11.0232 1.68015 10.4961 2.42287C9.96889 1.68015 9.2791 1.07414 8.48197 0.653396C7.68483 0.232656 6.8025 0.00888121 5.90568 0C4.28092 0.0664177 2.74795 0.78869 1.64197 2.00888C0.535988 3.22908 -0.0530144 4.84791 0.00375378 6.51141C0.00375378 10.5856 4.09051 14.9472 7.52325 17.8892C8.3568 18.6066 9.41094 19 10.5 19C11.5891 19 12.6432 18.6066 13.4768 17.8892C16.906 14.9472 20.9963 10.5856 20.9963 6.51141C21.053 4.84657 20.4629 3.22656 19.3552 2.00613C18.2476 0.785711 16.7126 0.0643429 15.0865 0ZM11.7875 15.8315C11.4259 16.1431 10.9684 16.314 10.4956 16.314C10.0229 16.314 9.56538 16.1431 9.20377 15.8315C5.02433 12.2441 2.62683 8.84747 2.62683 6.51141C2.57109 5.56018 2.88414 4.62483 3.49803 3.90844C4.11192 3.19206 4.97708 2.75247 5.90568 2.68512C6.83428 2.75247 7.69945 3.19206 8.31334 3.90844C8.92722 4.62483 9.24028 5.56018 9.18453 6.51141C9.18453 6.86748 9.32271 7.20897 9.56867 7.46074C9.81463 7.71252 10.1482 7.85397 10.4961 7.85397C10.8439 7.85397 11.1775 7.71252 11.4235 7.46074C11.6694 7.20897 11.8076 6.86748 11.8076 6.51141C11.7519 5.56018 12.0649 4.62483 12.6788 3.90844C13.2927 3.19206 14.1579 2.75247 15.0865 2.68512C16.0151 2.75247 16.8802 3.19206 17.4941 3.90844C18.108 4.62483 18.4211 5.56018 18.3653 6.51141C18.3653 8.84747 15.9678 12.2441 11.7875 15.8315Z" fill="#30008F"/>
</svg>
