<svg width="18" height="31" viewBox="0 0 18 31" fill="none" xmlns="http://www.w3.org/2000/svg">
<path d="M6.60131 16.2352C6.50355 16.1392 6.42599 16.0251 6.37306 15.8996C6.32014 15.774 6.2929 15.6394 6.2929 15.5035C6.2929 15.3675 6.32014 15.2329 6.37306 15.1073C6.42599 14.9818 6.50355 14.8677 6.60131 14.7717L16.2297 5.29408C16.8205 4.71269 17.1526 3.92404 17.1528 3.10163C17.153 2.27922 16.8213 1.49042 16.2308 0.908749C15.6403 0.32708 14.8393 0.00019392 14.0039 8.62517e-08C13.1686 -0.000193747 12.3674 0.326321 11.7766 0.907716L2.14821 10.3874C0.772531 11.7456 0 13.5854 0 15.5035C0 17.4215 0.772531 19.2614 2.14821 20.6195L11.7766 30.0992C12.3674 30.6806 13.1686 31.0071 14.0039 31.0069C14.8393 31.0067 15.6403 30.6798 16.2308 30.0982C16.8213 29.5165 17.153 28.7277 17.1528 27.9053C17.1526 27.0829 16.8205 26.2942 16.2297 25.7128L6.60131 16.2352Z" fill="#FAFBF5"/>
</svg>
