<svg width="74" height="71" viewBox="0 0 74 71" fill="none" xmlns="http://www.w3.org/2000/svg">
<path d="M66.2917 71H7.70833C6.69606 71 5.6937 70.8004 4.75848 70.4125C3.82326 70.0247 2.9735 69.4563 2.25772 68.7396C1.54193 68.023 0.974142 67.1722 0.586762 66.2359C0.199382 65.2996 0 64.2961 0 63.2826C0 61.2358 0.812126 59.2729 2.25772 57.8256C3.70331 56.3783 5.66396 55.5652 7.70833 55.5652H66.2917C67.3039 55.5652 68.3063 55.7648 69.2415 56.1527C70.1767 56.5405 71.0265 57.109 71.7423 57.8256C72.4581 58.5422 73.0259 59.393 73.4132 60.3293C73.8006 61.2656 74 62.2691 74 63.2826C74 64.2961 73.8006 65.2996 73.4132 66.2359C73.0259 67.1722 72.4581 68.023 71.7423 68.7396C71.0265 69.4563 70.1767 70.0247 69.2415 70.4125C68.3063 70.8004 67.3039 71 66.2917 71ZM74 40.1304C74 38.493 73.3503 36.9227 72.1938 35.7648C71.0373 34.607 69.4688 33.9565 67.8333 33.9565H6.16667C4.53116 33.9565 2.96265 34.607 1.80617 35.7648C0.649701 36.9227 0 38.493 0 40.1304C0 41.7679 0.649701 43.3382 1.80617 44.496C2.96265 45.6539 4.53116 46.3043 6.16667 46.3043H67.8333C69.4688 46.3043 71.0373 45.6539 72.1938 44.496C73.3503 43.3382 74 41.7679 74 40.1304ZM74 20.0652C74 18.8371 73.5127 17.6594 72.6454 16.791C71.778 15.9226 70.6016 15.4348 69.375 15.4348H4.625C3.39837 15.4348 2.22199 15.9226 1.35463 16.791C0.487275 17.6594 0 18.8371 0 20.0652C0 21.2933 0.487275 22.4711 1.35463 23.3394C2.22199 24.2078 3.39837 24.6957 4.625 24.6957H69.375C70.6016 24.6957 71.778 24.2078 72.6454 23.3394C73.5127 22.4711 74 21.2933 74 20.0652ZM74 3.08696C74 2.26824 73.6751 1.48307 73.0969 0.904148C72.5187 0.325232 71.7344 0 70.9167 0H3.08333C2.26558 0 1.48132 0.325232 0.903087 0.904148C0.32485 1.48307 0 2.26824 0 3.08696C0 3.90567 0.32485 4.69085 0.903087 5.26976C1.48132 5.84868 2.26558 6.17391 3.08333 6.17391H70.9167C71.7344 6.17391 72.5187 5.84868 73.0969 5.26976C73.6751 4.69085 74 3.90567 74 3.08696Z" fill="#30008F"/>
</svg>
