<svg width="25" height="24" viewBox="0 0 25 24" fill="none" xmlns="http://www.w3.org/2000/svg">
<path d="M22.3958 24H2.60417C2.26218 24 1.92355 23.9325 1.6076 23.8014C1.29164 23.6703 1.00456 23.4782 0.762743 23.2359C0.520924 22.9937 0.329102 22.7061 0.19823 22.3896C0.0673588 22.0731 0 21.7339 0 21.3913C0 20.6994 0.274367 20.0359 0.762743 19.5467C1.25112 19.0575 1.9135 18.7826 2.60417 18.7826H22.3958C22.7378 18.7826 23.0765 18.8501 23.3924 18.9812C23.7084 19.1123 23.9954 19.3044 24.2373 19.5467C24.4791 19.7889 24.6709 20.0765 24.8018 20.393C24.9326 20.7095 25 21.0487 25 21.3913C25 21.7339 24.9326 22.0731 24.8018 22.3896C24.6709 22.7061 24.4791 22.9937 24.2373 23.2359C23.9954 23.4782 23.7084 23.6703 23.3924 23.8014C23.0765 23.9325 22.7378 24 22.3958 24V24ZM25 13.5652C25 13.0117 24.7805 12.4809 24.3898 12.0895C23.9991 11.6981 23.4692 11.4783 22.9167 11.4783H2.08333C1.5308 11.4783 1.00089 11.6981 0.610194 12.0895C0.219493 12.4809 0 13.0117 0 13.5652C0 14.1187 0.219493 14.6495 0.610194 15.0409C1.00089 15.4323 1.5308 15.6522 2.08333 15.6522H22.9167C23.4692 15.6522 23.9991 15.4323 24.3898 15.0409C24.7805 14.6495 25 14.1187 25 13.5652ZM25 6.78261C25 6.36749 24.8354 5.96937 24.5424 5.67583C24.2493 5.3823 23.8519 5.21739 23.4375 5.21739H1.5625C1.1481 5.21739 0.750671 5.3823 0.457646 5.67583C0.16462 5.96937 0 6.36749 0 6.78261C0 7.19773 0.16462 7.59585 0.457646 7.88938C0.750671 8.18292 1.1481 8.34783 1.5625 8.34783H23.4375C23.8519 8.34783 24.2493 8.18292 24.5424 7.88938C24.8354 7.59585 25 7.19773 25 6.78261V6.78261ZM25 1.04348C25 0.766731 24.8903 0.501318 24.6949 0.305628C24.4996 0.109938 24.2346 0 23.9583 0H1.04167C0.765399 0 0.500447 0.109938 0.305097 0.305628C0.109747 0.501318 0 0.766731 0 1.04348C0 1.32023 0.109747 1.58564 0.305097 1.78133C0.500447 1.97702 0.765399 2.08696 1.04167 2.08696H23.9583C24.2346 2.08696 24.4996 1.97702 24.6949 1.78133C24.8903 1.58564 25 1.32023 25 1.04348Z" fill="#30008F"/>
</svg>
