<svg width="791" height="1435" viewBox="0 0 791 1435" fill="none" xmlns="http://www.w3.org/2000/svg">
<g clip-path="url(#clip0_330_654)">
<rect width="791" height="1435" fill="#F64CFF"/>
<path d="M402.571 316.803C149.771 268.003 -95.0952 351.47 -185.929 399.303C-205.095 429.137 -247.029 488.803 -261.429 488.803C-279.429 488.803 133.572 768.803 158.572 768.803C183.572 768.803 952.072 790.303 952.072 768.803C952.072 747.303 1113.57 273.803 952.072 316.803C790.572 359.803 718.571 377.803 402.571 316.803Z" fill="#D22DFB"/>
<path d="M402.571 460.803C149.771 412.003 -95.0952 495.47 -185.929 543.303C-205.095 573.137 -247.029 632.803 -261.429 632.803C-279.429 632.803 133.572 912.803 158.572 912.803C183.572 912.803 952.072 934.303 952.072 912.803C952.072 891.303 1113.57 417.803 952.072 460.803C790.572 503.803 718.571 521.803 402.571 460.803Z" fill="#B43BFF"/>
<path d="M418.571 662.803C165.771 614.003 -79.0952 697.47 -169.929 745.303C-189.095 775.137 -231.029 834.803 -245.429 834.803C-263.429 834.803 149.572 1114.8 174.572 1114.8C199.572 1114.8 968.072 1136.3 968.072 1114.8C968.072 1093.3 1129.57 619.803 968.072 662.803C806.572 705.803 734.571 723.803 418.571 662.803Z" fill="#833BFF"/>
<path d="M418.649 911.265C165.82 827.978 -79.0756 970.43 -169.92 1052.07C-189.088 1102.98 -231.027 1204.82 -245.428 1204.82C-263.431 1204.82 149.618 1682.69 174.621 1682.69C199.624 1682.69 968.214 1719.39 968.214 1682.69C968.214 1646 1129.73 837.877 968.214 911.265C806.695 984.653 734.687 1015.37 418.649 911.265Z" fill="#691EFF"/>
</g>
<defs>
<clipPath id="clip0_330_654">
<rect width="791" height="1435" fill="white"/>
</clipPath>
</defs>
</svg>
