<svg width="13" height="23" viewBox="0 0 13 23" fill="none" xmlns="http://www.w3.org/2000/svg">
<path d="M11.3719 7.70506L4.07453 0.673317C3.62677 0.242055 3.01956 -0.000143711 2.38648 6.39749e-08C1.75339 0.000143839 1.1463 0.242618 0.698749 0.674083C0.251198 1.10555 -0.00014914 1.69066 6.63914e-08 2.3007C0.000149273 2.91074 0.251784 3.49573 0.699546 3.92699L7.9969 10.9572C8.07099 11.0284 8.12977 11.113 8.16988 11.2062C8.20999 11.2993 8.23064 11.3992 8.23064 11.5C8.23064 11.6008 8.20999 11.7007 8.16988 11.7938C8.12977 11.887 8.07099 11.9716 7.9969 12.0428L0.699546 19.073C0.251784 19.5043 0.000149273 20.0893 6.63914e-08 20.6993C-0.00014914 21.3093 0.251198 21.8944 0.698749 22.3259C1.1463 22.7574 1.75339 22.9999 2.38648 23C3.01956 23.0001 3.62677 22.7579 4.07453 22.3267L11.3719 15.2949C12.4145 14.2875 13 12.9228 13 11.5C13 10.0772 12.4145 8.7125 11.3719 7.70506V7.70506Z" fill="#30008F"/>
</svg>
