<svg width="68" height="75" viewBox="0 0 68 75" fill="none" xmlns="http://www.w3.org/2000/svg">
<path d="M1.25654 55.9592C3.82804 60.4222 9.53078 61.9556 13.9938 59.3841C13.9969 59.3823 13.9998 59.3806 14.0029 59.3788L15.3862 58.5798C17.9977 60.8141 20.9994 62.5468 24.2402 63.6907V65.2857C24.2402 70.4366 28.4158 74.6122 33.5667 74.6122C38.7176 74.6122 42.8932 70.4366 42.8932 65.2857V63.6909C46.1345 62.545 49.1363 60.8103 51.7472 58.5737L53.1368 59.3758C57.6009 61.9512 63.3077 60.4202 65.8831 55.956C68.4586 51.4919 66.9276 45.7851 62.4634 43.2097L61.083 42.4139C61.7044 39.0328 61.7044 35.5669 61.083 32.1857L62.4634 31.3899C66.9274 28.8145 68.4586 23.1078 65.8831 18.6436C63.3077 14.1795 57.601 12.6484 53.1368 15.2238L51.7534 16.0228C49.1394 13.7913 46.1357 12.0618 42.8932 10.9214V9.32653C42.8932 4.17566 38.7176 0 33.5667 0C28.4158 0 24.2402 4.17566 24.2402 9.32653V10.9214C20.9989 12.0672 17.9971 13.802 15.3862 16.0386L13.9966 15.2334C9.53238 12.6579 3.82571 14.189 1.25028 18.6531C-1.32516 23.1171 0.205852 28.8239 4.67005 31.3994L6.05038 32.1952C5.429 35.5762 5.429 39.0422 6.05038 42.4233L4.67005 43.2191C0.218239 45.8014 -1.30781 51.497 1.25654 55.9592ZM33.5667 24.8708C40.4345 24.8708 46.002 30.4383 46.002 37.3061C46.002 44.1739 40.4345 49.7414 33.5667 49.7414C26.6989 49.7414 21.1314 44.1739 21.1314 37.3061C21.1314 30.4383 26.6989 24.8708 33.5667 24.8708Z" fill="#30008F"/>
</svg>
