<svg width="412" height="456" viewBox="0 0 412 456" fill="none" xmlns="http://www.w3.org/2000/svg">
<ellipse cx="-4.06706" cy="227.827" rx="105.408" ry="227.827" fill="#691EFF"/>
<ellipse cx="101.34" cy="227.827" rx="105.408" ry="227.827" fill="#691EFF"/>
<ellipse cx="206.745" cy="227.827" rx="105.408" ry="227.827" fill="#691EFF"/>
<ellipse cx="414.634" cy="227.827" rx="105.408" ry="227.827" fill="#691EFF"/>
<ellipse cx="309.228" cy="227.827" rx="105.408" ry="227.827" fill="#691EFF"/>
<path d="M59.5599 354.014L34.7247 363.088C30.5855 364.6 27.6779 368.132 26.8525 372.631C25.9684 377.646 26.4123 382.916 28.1633 387.709C32.0633 398.384 40.4796 407.902 47.6687 405.276C51.5901 403.843 53.7436 399.599 53.4379 394.031C53.4966 393.516 53.6349 393.219 54.0706 393.06L64.0918 389.398C64.5275 389.239 65.0428 389.298 65.202 389.733C69.9275 395.909 74.4646 395.486 76.6432 394.69C84.0502 391.984 84.348 379.281 80.448 368.607C78.6969 363.814 75.6388 359.499 71.6506 356.017C68.4164 353.248 63.6991 352.502 59.5599 354.014ZM74.4732 388.075C73.8197 388.314 72.5503 387.543 71.0212 385.385C68.8177 382.733 65.1897 381.589 61.9219 382.783L51.6828 386.524C48.415 387.718 46.3788 390.931 46.4039 394.379C46.5462 396.796 45.9345 398.501 45.281 398.74C43.8943 399 38.201 394.907 34.6989 385.321C33.3458 381.618 33.082 377.516 33.631 373.612C33.9452 371.768 35.3697 370.26 37.1125 369.623L61.9477 360.55C63.6905 359.913 65.7517 360.148 67.1803 361.354C70.3348 363.906 72.5593 367.291 73.9124 370.994C77.4145 380.58 75.7008 387.379 74.4732 388.075Z" fill="#30008F"/>
<path d="M48.6499 372.817L47.5607 373.215L47.1627 372.125C46.526 370.383 44.4438 369.415 42.701 370.051C40.9582 370.688 39.9904 372.77 40.6271 374.513L41.0251 375.602L39.9358 376C38.193 376.637 37.2252 378.719 37.8619 380.462C38.4986 382.205 40.5808 383.173 42.3236 382.536L43.4128 382.138L43.8108 383.227C44.4475 384.97 46.5297 385.938 48.2725 385.301C50.0153 384.664 50.9831 382.582 50.3464 380.839L49.9484 379.75L51.0377 379.352C52.7805 378.715 53.7483 376.633 53.1116 374.891C52.4749 373.148 50.3927 372.18 48.6499 372.817Z" fill="#30008F"/>
<path d="M65.197 374.177C67.6033 373.298 68.8413 370.635 67.9622 368.229C67.083 365.822 64.4196 364.584 62.0133 365.463C59.607 366.342 58.3689 369.006 59.2481 371.412C60.1272 373.819 62.7907 375.057 65.197 374.177Z" fill="#30008F"/>
<path d="M391.722 254.001C391.144 252.937 390.338 252.013 389.363 251.295C388.387 250.577 387.266 250.083 386.078 249.847L369.266 246.522C366.958 246.066 364.564 246.43 362.498 247.553C360.431 248.676 358.822 250.485 357.948 252.669L351.863 267.879C351.369 267.505 350.829 267.195 350.257 266.958C348.91 266.419 347.434 266.292 346.015 266.592C344.596 266.892 343.298 267.607 342.285 268.645C341.272 269.683 340.589 270.998 340.324 272.424C340.058 273.85 340.221 275.322 340.792 276.656C341.364 277.989 342.317 279.123 343.533 279.914C344.749 280.705 346.171 281.118 347.622 281.1C349.072 281.082 350.485 280.635 351.681 279.815C352.877 278.994 353.803 277.838 354.342 276.491L359.79 262.873C360.028 262.277 360.467 261.784 361.031 261.478C361.595 261.172 362.248 261.072 362.877 261.197L383.343 265.238C383.476 265.261 383.602 265.314 383.711 265.394C383.82 265.474 383.91 265.578 383.972 265.699C384.037 265.818 384.074 265.95 384.082 266.086C384.089 266.221 384.067 266.357 384.015 266.482L381.141 273.668C379.909 272.766 378.426 272.273 376.9 272.256C375.373 272.239 373.88 272.7 372.628 273.574C371.377 274.448 370.43 275.692 369.92 277.131C369.411 278.57 369.364 280.132 369.786 281.599C370.208 283.066 371.078 284.364 372.275 285.312C373.471 286.26 374.934 286.81 376.459 286.885C377.984 286.96 379.494 286.556 380.778 285.73C382.061 284.905 383.055 283.698 383.619 282.28L392.132 261.001C392.584 259.876 392.781 258.665 392.71 257.455C392.639 256.245 392.302 255.065 391.722 254.001V254.001ZM384.41 259.845L363.944 255.801C363.525 255.723 363.1 255.678 362.673 255.665L363.055 254.712C363.452 253.72 364.183 252.897 365.123 252.387C366.062 251.877 367.15 251.711 368.199 251.918L385.006 255.242C385.402 255.32 385.776 255.485 386.101 255.724C386.426 255.963 386.695 256.271 386.888 256.626C387.08 256.981 387.193 257.374 387.217 257.777C387.24 258.18 387.175 258.583 387.026 258.958L386.361 260.62C385.757 260.257 385.098 259.995 384.41 259.845V259.845Z" fill="#30008F"/>
<path d="M374.896 382.087C373.671 381.721 372.381 381.63 371.117 381.819C369.853 382.009 368.646 382.474 367.582 383.183L359.775 376.361C360.231 375.685 360.588 374.948 360.837 374.172C361.059 373.397 361.172 372.595 361.173 371.789L371.45 370.422C372.265 372.297 373.716 373.826 375.546 374.738C377.377 375.651 379.47 375.89 381.459 375.412C383.448 374.935 385.206 373.772 386.422 372.128C387.639 370.484 388.238 368.464 388.114 366.422C387.989 364.381 387.149 362.448 385.742 360.964C384.334 359.48 382.448 358.539 380.416 358.307C378.384 358.075 376.335 358.566 374.629 359.695C372.923 360.823 371.669 362.516 371.087 364.477C371.015 364.715 370.997 364.955 370.947 365.194L359.627 366.696C358.522 365.056 356.888 363.844 354.999 363.261C352.778 362.588 350.38 362.825 348.334 363.92C346.288 365.015 344.761 366.878 344.088 369.099C343.415 371.32 343.652 373.717 344.747 375.763C345.842 377.809 347.705 379.337 349.926 380.009C351.813 380.572 353.835 380.475 355.659 379.735L364.265 387.254C364.174 387.481 364.056 387.689 363.985 387.925C363.483 389.581 363.484 391.349 363.987 393.005C364.49 394.66 365.473 396.13 366.811 397.227C368.149 398.325 369.783 399 371.505 399.169C373.227 399.338 374.961 398.993 376.487 398.176C378.013 397.36 379.263 396.109 380.078 394.583C380.893 393.056 381.237 391.322 381.067 389.6C380.896 387.878 380.219 386.245 379.121 384.908C378.022 383.57 376.552 382.589 374.896 382.087V382.087ZM380.476 363.664C381.138 363.865 381.727 364.257 382.166 364.792C382.605 365.327 382.876 365.98 382.944 366.669C383.012 367.358 382.875 368.052 382.549 368.662C382.223 369.273 381.723 369.773 381.112 370.1C380.502 370.426 379.809 370.565 379.12 370.497C378.431 370.429 377.777 370.159 377.242 369.72C376.707 369.281 376.314 368.693 376.112 368.031C375.911 367.369 375.911 366.662 376.112 365.999C376.381 365.111 376.992 364.366 377.81 363.928C378.629 363.49 379.587 363.395 380.476 363.664V363.664ZM351.448 374.985C350.785 374.784 350.197 374.392 349.758 373.857C349.318 373.322 349.047 372.669 348.979 371.98C348.911 371.291 349.049 370.597 349.375 369.987C349.701 369.376 350.201 368.876 350.811 368.549C351.421 368.223 352.115 368.084 352.804 368.152C353.493 368.22 354.146 368.49 354.681 368.929C355.217 369.368 355.61 369.956 355.811 370.618C356.012 371.28 356.013 371.987 355.812 372.65C355.543 373.538 354.932 374.283 354.113 374.721C353.295 375.159 352.336 375.254 351.448 374.985ZM371.345 393.811C370.682 393.61 370.094 393.218 369.655 392.683C369.215 392.148 368.944 391.495 368.876 390.806C368.808 390.117 368.946 389.423 369.272 388.813C369.598 388.202 370.098 387.702 370.708 387.375C371.318 387.049 372.012 386.91 372.701 386.978C373.39 387.046 374.043 387.316 374.578 387.755C375.114 388.194 375.507 388.782 375.708 389.444C375.909 390.106 375.91 390.813 375.709 391.476C375.44 392.364 374.829 393.109 374.01 393.547C373.192 393.985 372.233 394.08 371.345 393.811Z" fill="#30008F"/>
<path d="M51.6065 268.267C47.4388 267.423 43.1144 267.834 39.1802 269.448C35.246 271.062 31.8786 273.806 29.504 277.333C27.1293 280.861 25.854 285.013 25.8394 289.265C25.8247 293.518 27.0713 297.679 29.4215 301.222C31.7717 304.766 35.12 307.534 39.043 309.174C42.966 310.815 47.2874 311.256 51.4608 310.441C55.6343 309.626 59.4722 307.591 62.4894 304.595C65.5066 301.598 67.5675 297.774 68.4115 293.607C69.5368 288.019 68.3994 282.212 65.2489 277.462C62.0984 272.711 57.1921 269.405 51.6065 268.267V268.267ZM54.7751 281.705L43.4593 279.414C45.5457 276.773 48.0006 274.445 50.7487 272.503C52.5256 275.361 53.8816 278.46 54.7751 281.705V281.705ZM55.4688 285.502C55.6633 287.315 55.5855 289.148 55.2378 290.939C54.8613 292.724 54.22 294.443 53.3351 296.038L39.2062 293.177C39.0116 291.363 39.0895 289.53 39.4371 287.739C39.8136 285.954 40.4549 284.236 41.3398 282.64L55.4688 285.502ZM46.203 271.48C43.6781 273.546 41.4523 275.952 39.5891 278.63L33.9329 277.484C37.0732 273.946 41.4821 271.788 46.203 271.48V271.48ZM29.779 285.783C30.1407 283.996 30.7735 282.275 31.6553 280.679L37.6943 281.902C36.8909 283.529 36.2964 285.252 35.9251 287.028C35.5761 288.809 35.4536 290.627 35.5607 292.438L29.5217 291.215C29.3302 289.402 29.417 287.57 29.779 285.783V285.783ZM30.3769 295.045L36.033 296.19C36.7076 299.382 37.8219 302.465 39.3441 305.35C35.1152 303.229 31.8931 299.526 30.3769 295.045V295.045ZM39.9033 296.974L51.2191 299.265C49.1328 301.906 46.6779 304.234 43.9297 306.176C42.1529 303.318 40.7968 300.219 39.9033 296.974V296.974ZM48.4842 307.201C51.0061 305.134 53.229 302.727 55.0894 300.049L60.7455 301.195C57.6077 304.732 53.2023 306.89 48.4842 307.201V307.201ZM64.8995 292.896C64.5377 294.683 63.905 296.404 63.0231 298L56.9842 296.777C57.7876 295.15 58.382 293.427 58.7534 291.651C59.1024 289.87 59.2248 288.052 59.1178 286.241L65.1532 287.463C65.346 289.276 65.2604 291.108 64.8995 292.896V292.896ZM58.6454 282.489C57.9735 279.298 56.8621 276.216 55.3431 273.331C59.5684 275.453 62.7871 279.155 64.3016 283.634L58.6454 282.489Z" fill="#30008F"/>
</svg>
