<svg width="41" height="40" viewBox="0 0 41 40" fill="none" xmlns="http://www.w3.org/2000/svg">
<path d="M40.6465 14.8795C40.6465 13.5641 40.1112 12.3025 39.1584 11.3724C38.2056 10.4422 36.9132 9.91969 35.5657 9.91969H30.4849C30.4849 7.28882 29.4143 4.76571 27.5086 2.90541C25.6029 1.04511 23.0183 0 20.3233 0C17.6282 0 15.0436 1.04511 13.1379 2.90541C11.2322 4.76571 10.1616 7.28882 10.1616 9.91969H5.08082C3.7333 9.91969 2.44097 10.4422 1.48814 11.3724C0.535299 12.3025 0 13.5641 0 14.8795L0 31.4123C0.0026892 33.6039 0.895717 35.705 2.4832 37.2547C4.07068 38.8044 6.22299 39.6761 8.46803 39.6788H32.1785C34.4235 39.6761 36.5759 38.8044 38.1633 37.2547C39.7508 35.705 40.6438 33.6039 40.6465 31.4123V14.8795ZM13.5488 9.91969C13.5488 8.16578 14.2626 6.4837 15.533 5.2435C16.8035 4.0033 18.5266 3.30656 20.3233 3.30656C22.12 3.30656 23.8431 4.0033 25.1135 5.2435C26.384 6.4837 27.0977 8.16578 27.0977 9.91969H13.5488Z" fill="#FAFBF5"/>
</svg>
