<svg width="1032" height="1032" viewBox="0 0 1032 1032" fill="none" xmlns="http://www.w3.org/2000/svg">
<rect width="1032" height="1032" fill="#FAFBF5"/>
<path d="M549.287 25.8713L560.689 28.6666C567.538 30.3457 572.7 36.7816 573.611 44.7785C574.522 52.7745 579.683 59.2096 586.531 60.8885C593.38 62.5675 598.54 69.0024 599.451 76.9988C600.362 84.9948 605.523 91.4298 612.371 93.1091C619.22 94.7887 624.381 101.224 625.293 109.221C626.204 117.218 631.365 123.653 638.215 125.332L649.616 128.128" stroke="black" stroke-width="21" stroke-miterlimit="10" stroke-linecap="round"/>
<path d="M549.287 25.8713L560.689 28.6666C567.538 30.3457 572.7 36.7816 573.611 44.7785C574.522 52.7745 579.683 59.2096 586.531 60.8885C593.38 62.5675 598.54 69.0024 599.451 76.9988C600.362 84.9948 605.523 91.4298 612.371 93.1091C619.22 94.7887 624.381 101.224 625.293 109.221C626.204 117.218 631.365 123.653 638.215 125.332L649.616 128.128" stroke="#D22DFB" stroke-width="12" stroke-miterlimit="10" stroke-linecap="round"/>
<path d="M878.539 89.4082C872.298 83.3815 872.752 73.2484 879.506 67.8033C886.261 62.3582 896.259 64.0658 900.824 71.444L915.028 94.4024C917.959 99.1399 916.904 105.318 912.567 108.815C908.229 112.311 901.968 112.031 897.96 108.161L878.539 89.4082Z" fill="#C7D852"/>
<path d="M69.0731 112.365C74.7029 105.763 84.8447 105.59 90.6964 111.996C96.5481 118.401 95.4611 128.486 88.3789 133.498L66.3411 149.092C61.7937 152.31 55.5618 151.638 51.8044 147.525C48.0471 143.412 47.9402 137.145 51.555 132.906L69.0731 112.365Z" fill="#691EFF"/>
<path d="M652.329 830.424C656.761 835.276 655.937 842.913 650.574 846.709L628.536 862.303C625.43 864.501 621.172 864.042 618.605 861.233C616.038 858.423 615.966 854.141 618.435 851.245L635.953 830.704C640.217 825.704 647.897 825.573 652.329 830.424Z" stroke="#691EFF" stroke-width="7"/>
<path d="M81.2757 816.155C89.8349 811.759 99.944 818.276 99.4722 827.887L97.5846 866.324C97.1127 875.935 86.4138 881.431 78.3264 876.217L45.9824 855.364C37.8952 850.15 38.4852 838.137 47.0441 833.74L81.2757 816.155Z" stroke="#691EFF" stroke-width="7"/>
<path d="M191.526 1007.83L191.929 998.952C192.169 993.673 196.356 989.007 202.262 987.438C208.168 985.87 212.355 981.205 212.595 975.926C212.834 970.647 217.021 965.982 222.927 964.414C228.833 962.846 233.019 958.18 233.259 952.902C233.5 947.622 237.687 942.957 243.593 941.388C249.499 939.819 253.686 935.154 253.926 929.874L254.329 921" stroke="black" stroke-width="9" stroke-miterlimit="10" stroke-linecap="round"/>
<path d="M191.526 1007.83L191.929 998.952C192.169 993.673 196.356 989.007 202.262 987.438C208.168 985.87 212.355 981.205 212.595 975.926C212.834 970.647 217.021 965.982 222.927 964.414C228.833 962.846 233.019 958.18 233.259 952.902C233.5 947.622 237.687 942.957 243.593 941.388C249.499 939.819 253.686 935.154 253.926 929.874L254.329 921" stroke="#691EFF" stroke-width="6" stroke-miterlimit="10" stroke-linecap="round"/>
<path d="M906.348 447.245L915.224 447.6C920.505 447.812 925.193 451.974 926.793 457.872C928.393 463.769 933.081 467.931 938.36 468.142C943.641 468.354 948.328 472.516 949.928 478.413C951.528 484.31 956.215 488.472 961.495 488.683C966.776 488.895 971.464 493.057 973.064 498.955C974.665 504.853 979.353 509.015 984.633 509.226L993.51 509.581" stroke="black" stroke-width="9" stroke-miterlimit="10" stroke-linecap="round"/>
<path d="M906.348 447.245L915.224 447.6C920.505 447.812 925.193 451.974 926.793 457.872C928.393 463.769 933.081 467.931 938.36 468.142C943.641 468.354 948.328 472.516 949.928 478.413C951.528 484.31 956.215 488.472 961.495 488.683C966.776 488.895 971.464 493.057 973.064 498.955C974.665 504.853 979.353 509.015 984.633 509.226L993.51 509.581" stroke="#691EFF" stroke-width="6" stroke-miterlimit="10" stroke-linecap="round"/>
<path d="M599.141 281.408C601.779 278.606 606.462 279.711 607.57 283.397L615.836 310.902C616.944 314.589 613.646 318.092 609.9 317.208L581.946 310.614C578.2 309.73 576.815 305.123 579.453 302.32L599.141 281.408Z" fill="#691EFF"/>
<path d="M418.141 676.408C420.779 673.606 425.462 674.711 426.57 678.397L434.836 705.902C435.944 709.589 432.646 713.092 428.9 712.208L400.946 705.614C397.2 704.73 395.815 700.123 398.453 697.32L418.141 676.408Z" fill="#691EFF"/>
<path d="M951.308 919.519C953.946 916.716 958.629 917.821 959.737 921.507L972.585 964.26C973.693 967.946 970.395 971.449 966.649 970.565L923.2 960.316C919.453 959.433 918.069 954.825 920.707 952.022L951.308 919.519Z" fill="#691EFF"/>
<path d="M188.333 492.03C191.992 490.835 195.573 494.049 194.778 497.815L177.042 581.878C176.247 585.644 171.674 587.138 168.81 584.566L104.877 527.175C102.013 524.604 103.006 519.896 106.665 518.701L188.333 492.03Z" fill="#D22DFB"/>
<path d="M181.754 265.083C183.694 256.445 194.256 253.147 200.767 259.146L249.994 304.505C256.504 310.504 254.079 321.301 245.629 323.94L181.733 343.892C173.282 346.53 165.145 339.032 167.085 330.394L181.754 265.083Z" stroke="#691EFF" stroke-width="9"/>
<path d="M669.329 525.528C664.136 532.478 654.026 533.304 647.774 527.288C641.523 521.273 641.958 511.139 648.703 505.682L669.691 488.701C674.022 485.198 680.284 485.467 684.299 489.329C688.313 493.192 688.823 499.439 685.489 503.902L669.329 525.528Z" fill="#C7D852"/>
<path d="M915.276 228.155C923.835 223.759 933.944 230.276 933.472 239.887L931.585 278.324C931.113 287.935 920.414 293.431 912.326 288.217L879.982 267.364C871.895 262.15 872.485 250.137 881.044 245.74L915.276 228.155Z" stroke="#D22DFB" stroke-width="7"/>
<path d="M338.397 100.769C340.422 91.756 351.443 88.3144 358.237 94.5739L380.951 115.504C387.744 121.764 385.214 133.03 376.397 135.783L346.913 144.99C338.096 147.743 329.605 139.918 331.629 130.905L338.397 100.769Z" stroke="#C7D852" stroke-width="8"/>
<path d="M860.58 706.912C864.446 711.346 863.627 718.15 858.821 721.541C854.015 724.932 847.33 723.421 844.449 718.293L831.838 695.845C830.012 692.594 830.94 688.489 833.986 686.34C837.033 684.19 841.211 684.693 843.661 687.503L860.58 706.912Z" fill="#D22DFB"/>
</svg>
